#Comment line ignore any data following # character 
#Hierarchical Translation and Rotation (.htr) file 
[Header]	
#Header keywords are followed by a single value 
FileType HTR		#Single word string
DataType HTRS		#Translation followed by rotation and scale data
FileVersion 1		#integer
NumSegments 84		#integer
NumFrames 2		#integer
DataFrameRate 30		#integer, data frame rate in this file
EulerRotationOrder ZYX
CalibrationUnits mm
RotationUnits Degrees
GlobalAxisofGravity Y
BoneLengthAxis Y
ScaleFactor 1.00
[SegmentNames&Hierarchy]
#CHILD	PARENT
MASTER GLOBAL
root MASTER
chest root
L_mid_tent01 root
R_mid_tent01 root
spine01 root
Bip01_Neck chest
L_humerus chest
R_humerus chest
weapon_bone chest
Bip01_Head Bip01_Neck
eye_left_bone Bip01_Head
eye_right_bone Bip01_Head
L_forearm L_humerus
L_front_hand L_forearm
L_weapon_bone L_forearm
L_front_hand01_01 L_front_hand
L_front_hand02_01 L_front_hand
L_front_hand03_01 L_front_hand
L_front_hand01_02 L_front_hand01_01
L_front_hand02_02 L_front_hand02_01
L_front_hand03_02 L_front_hand03_01
R_forearm R_humerus
R_front_hand R_forearm
R_weapon_bone R_forearm
R_front_hand01_01 R_front_hand
R_front_hand02_01 R_front_hand
R_front_hand03_01 R_front_hand
R_front_hand01_02 R_front_hand01_01
R_front_hand02_02 R_front_hand02_01
R_front_hand03_02 R_front_hand03_01
null_rope01_connect L_mid_tent01
Rope1_Seg01 null_rope01_connect
Rope1_Seg02 Rope1_Seg01
Rope1_Seg03 Rope1_Seg02
Rope1_Seg04 Rope1_Seg03
Rope1_Seg05 Rope1_Seg04
Rope1_Seg06 Rope1_Seg05
Rope1_Seg07 Rope1_Seg06
Rope1_Seg09 Rope1_Seg07
L_mid_hand01 Rope1_Seg09
L_mid_hand02 Rope1_Seg09
L_mid_hand03 Rope1_Seg09
null_rope02_connect R_mid_tent01
Rope2_Seg01 null_rope02_connect
Rope2_Seg02 Rope2_Seg01
Rope2_Seg03 Rope2_Seg02
Rope2_Seg04 Rope2_Seg03
Rope2_Seg05 Rope2_Seg04
Rope2_Seg06 Rope2_Seg05
Rope2_Seg07 Rope2_Seg06
Rope2_Seg09 Rope2_Seg07
R_mid_hand01 Rope2_Seg09
R_mid_hand02 Rope2_Seg09
R_mid_hand03 Rope2_Seg09
spine02 spine01
spine03 spine02
pelvis spine03
null_rope03_connect pelvis
null_rope04_connect pelvis
Rope3_Seg01 null_rope03_connect
Rope3_Seg02 Rope3_Seg01
Rope3_Seg03 Rope3_Seg02
Rope3_Seg04 Rope3_Seg03
Rope3_Seg05 Rope3_Seg04
Rope3_Seg06 Rope3_Seg05
Rope3_Seg07 Rope3_Seg06
Rope3_Seg08 Rope3_Seg07
Rope3_Seg09 Rope3_Seg08
R_rear_hand01 Rope3_Seg09
R_rear_hand02 Rope3_Seg09
R_rear_hand03 Rope3_Seg09
Rope4_Seg01 null_rope04_connect
Rope4_Seg02 Rope4_Seg01
Rope4_Seg03 Rope4_Seg02
Rope4_Seg04 Rope4_Seg03
Rope4_Seg05 Rope4_Seg04
Rope4_Seg06 Rope4_Seg05
Rope4_Seg07 Rope4_Seg06
Rope4_Seg08 Rope4_Seg07
Rope4_Seg09 Rope4_Seg08
L_rear_hand01 Rope4_Seg09
L_rear_hand02 Rope4_Seg09
L_rear_hand03 Rope4_Seg09
[BasePosition]
#SegmentName Tx, Ty, Tz, Rx, Ry, Rz, BoneLength
MASTER 0.000000 0.000000 0.000000 -90.000000 0.000000 0.000000 10.000000 
root 0.000000 0.000000 0.000000 0.000000 0.000000 0.000000 10.000000 
chest 0.000000 0.000000 0.000000 0.000000 0.000000 0.000000 10.000000 
L_mid_tent01 0.000000 0.000000 0.000000 0.000000 0.000000 0.000000 10.000000 
R_mid_tent01 0.000000 0.000000 0.000000 0.000000 0.000000 0.000000 10.000000 
spine01 0.000000 0.000000 0.000000 0.000000 0.000000 0.000000 10.000000 
Bip01_Neck 0.000000 0.000000 0.000000 0.000000 0.000000 0.000000 10.000000 
L_humerus 0.000000 0.000000 0.000000 0.000000 0.000000 0.000000 10.000000 
R_humerus 0.000000 0.000000 0.000000 0.000000 0.000000 0.000000 10.000000 
weapon_bone 0.000000 0.000000 0.000000 0.000000 0.000000 0.000000 10.000000 
Bip01_Head 0.000000 0.000000 0.000000 0.000000 0.000000 0.000000 10.000000 
eye_left_bone 0.000000 0.000000 0.000000 0.000000 0.000000 0.000000 10.000000 
eye_right_bone 0.000000 0.000000 0.000000 0.000000 0.000000 0.000000 10.000000 
L_forearm 0.000000 0.000000 0.000000 0.000000 0.000000 0.000000 10.000000 
L_front_hand 0.000000 0.000000 0.000000 0.000000 0.000000 0.000000 10.000000 
L_weapon_bone 0.000000 0.000000 0.000000 0.000000 0.000000 0.000000 10.000000 
L_front_hand01_01 0.000000 0.000000 0.000000 0.000000 0.000000 0.000000 10.000000 
L_front_hand02_01 0.000000 0.000000 0.000000 0.000000 0.000000 0.000000 10.000000 
L_front_hand03_01 0.000000 0.000000 0.000000 0.000000 0.000000 0.000000 10.000000 
L_front_hand01_02 0.000000 0.000000 0.000000 0.000000 0.000000 0.000000 10.000000 
L_front_hand02_02 0.000000 0.000000 0.000000 0.000000 0.000000 0.000000 10.000000 
L_front_hand03_02 0.000000 0.000000 0.000000 0.000000 0.000000 0.000000 10.000000 
R_forearm 0.000000 0.000000 0.000000 0.000000 0.000000 0.000000 10.000000 
R_front_hand 0.000000 0.000000 0.000000 0.000000 0.000000 0.000000 10.000000 
R_weapon_bone 0.000000 0.000000 0.000000 0.000000 0.000000 0.000000 10.000000 
R_front_hand01_01 0.000000 0.000000 0.000000 0.000000 0.000000 0.000000 10.000000 
R_front_hand02_01 0.000000 0.000000 0.000000 0.000000 0.000000 0.000000 10.000000 
R_front_hand03_01 0.000000 0.000000 0.000000 0.000000 0.000000 0.000000 10.000000 
R_front_hand01_02 0.000000 0.000000 0.000000 0.000000 0.000000 0.000000 10.000000 
R_front_hand02_02 0.000000 0.000000 0.000000 0.000000 0.000000 0.000000 10.000000 
R_front_hand03_02 0.000000 0.000000 0.000000 0.000000 0.000000 0.000000 10.000000 
null_rope01_connect 0.000000 0.000000 0.000000 0.000000 0.000000 0.000000 10.000000 
Rope1_Seg01 0.000000 0.000000 0.000000 0.000000 0.000000 0.000000 10.000000 
Rope1_Seg02 0.000000 0.000000 0.000000 0.000000 0.000000 0.000000 10.000000 
Rope1_Seg03 0.000000 0.000000 0.000000 0.000000 0.000000 0.000000 10.000000 
Rope1_Seg04 0.000000 0.000000 0.000000 0.000000 0.000000 0.000000 10.000000 
Rope1_Seg05 0.000000 0.000000 0.000000 0.000000 0.000000 0.000000 10.000000 
Rope1_Seg06 0.000000 0.000000 0.000000 0.000000 0.000000 0.000000 10.000000 
Rope1_Seg07 0.000000 0.000000 0.000000 0.000000 0.000000 0.000000 10.000000 
Rope1_Seg09 0.000000 0.000000 0.000000 0.000000 0.000000 0.000000 10.000000 
L_mid_hand01 0.000000 0.000000 0.000000 0.000000 0.000000 0.000000 10.000000 
L_mid_hand02 0.000000 0.000000 0.000000 0.000000 0.000000 0.000000 10.000000 
L_mid_hand03 0.000000 0.000000 0.000000 0.000000 0.000000 0.000000 10.000000 
null_rope02_connect 0.000000 0.000000 0.000000 0.000000 0.000000 0.000000 10.000000 
Rope2_Seg01 0.000000 0.000000 0.000000 0.000000 0.000000 0.000000 10.000000 
Rope2_Seg02 0.000000 0.000000 0.000000 0.000000 0.000000 0.000000 10.000000 
Rope2_Seg03 0.000000 0.000000 0.000000 0.000000 0.000000 0.000000 10.000000 
Rope2_Seg04 0.000000 0.000000 0.000000 0.000000 0.000000 0.000000 10.000000 
Rope2_Seg05 0.000000 0.000000 0.000000 0.000000 0.000000 0.000000 10.000000 
Rope2_Seg06 0.000000 0.000000 0.000000 0.000000 0.000000 0.000000 10.000000 
Rope2_Seg07 0.000000 0.000000 0.000000 0.000000 0.000000 0.000000 10.000000 
Rope2_Seg09 0.000000 0.000000 0.000000 0.000000 0.000000 0.000000 10.000000 
R_mid_hand01 0.000000 0.000000 0.000000 0.000000 0.000000 0.000000 10.000000 
R_mid_hand02 0.000000 0.000000 0.000000 0.000000 0.000000 0.000000 10.000000 
R_mid_hand03 0.000000 0.000000 0.000000 0.000000 0.000000 0.000000 10.000000 
spine02 0.000000 0.000000 0.000000 0.000000 0.000000 0.000000 10.000000 
spine03 0.000000 0.000000 0.000000 0.000000 0.000000 0.000000 10.000000 
pelvis 0.000000 0.000000 0.000000 0.000000 0.000000 0.000000 10.000000 
null_rope03_connect 0.000000 0.000000 0.000000 0.000000 0.000000 0.000000 10.000000 
null_rope04_connect 0.000000 0.000000 0.000000 0.000000 0.000000 0.000000 10.000000 
Rope3_Seg01 0.000000 0.000000 0.000000 0.000000 0.000000 0.000000 10.000000 
Rope3_Seg02 0.000000 0.000000 0.000000 0.000000 0.000000 0.000000 10.000000 
Rope3_Seg03 0.000000 0.000000 0.000000 0.000000 0.000000 0.000000 10.000000 
Rope3_Seg04 0.000000 0.000000 0.000000 0.000000 0.000000 0.000000 10.000000 
Rope3_Seg05 0.000000 0.000000 0.000000 0.000000 0.000000 0.000000 10.000000 
Rope3_Seg06 0.000000 0.000000 0.000000 0.000000 0.000000 0.000000 10.000000 
Rope3_Seg07 0.000000 0.000000 0.000000 0.000000 0.000000 0.000000 10.000000 
Rope3_Seg08 0.000000 0.000000 0.000000 0.000000 0.000000 0.000000 10.000000 
Rope3_Seg09 0.000000 0.000000 0.000000 0.000000 0.000000 0.000000 10.000000 
R_rear_hand01 0.000000 0.000000 0.000000 0.000000 0.000000 0.000000 10.000000 
R_rear_hand02 0.000000 0.000000 0.000000 0.000000 0.000000 0.000000 10.000000 
R_rear_hand03 0.000000 0.000000 0.000000 0.000000 0.000000 0.000000 10.000000 
Rope4_Seg01 0.000000 0.000000 0.000000 0.000000 0.000000 0.000000 10.000000 
Rope4_Seg02 0.000000 0.000000 0.000000 0.000000 0.000000 0.000000 10.000000 
Rope4_Seg03 0.000000 0.000000 0.000000 0.000000 0.000000 0.000000 10.000000 
Rope4_Seg04 0.000000 0.000000 0.000000 0.000000 0.000000 0.000000 10.000000 
Rope4_Seg05 0.000000 0.000000 0.000000 0.000000 0.000000 0.000000 10.000000 
Rope4_Seg06 0.000000 0.000000 0.000000 0.000000 0.000000 0.000000 10.000000 
Rope4_Seg07 0.000000 0.000000 0.000000 0.000000 0.000000 0.000000 10.000000 
Rope4_Seg08 0.000000 0.000000 0.000000 0.000000 0.000000 0.000000 10.000000 
Rope4_Seg09 0.000000 0.000000 0.000000 0.000000 0.000000 0.000000 10.000000 
L_rear_hand01 0.000000 0.000000 0.000000 0.000000 0.000000 0.000000 10.000000 
L_rear_hand02 0.000000 0.000000 0.000000 0.000000 0.000000 0.000000 10.000000 
L_rear_hand03 0.000000 0.000000 0.000000 0.000000 0.000000 0.000000 10.000000 
#Beginning of Data. Separated by tabs
#Fr	Tx	Ty	Tz	Rx	Ry	Rz	SF
[MASTER]
57 -33.118435 5620.967773 75.447861 0.001660 0.001660 0.001660 5621.571777
58 -25.599913 5760.477051 50.298512 0.001660 0.001660 0.001660 5760.753906
[root]
57 7.710138 -30.825027 1287.967041 -91.684708 -17.270412 -89.609459 1288.359009
58 0.800804 -10.484791 1369.133545 -91.704750 -14.330985 -89.543930 1369.173950
[chest]
57 -84.512650 -34.090519 0.000000 -0.941114 -4.011400 157.204956 91.129311
58 -84.512650 -34.090519 0.000000 -1.524896 -2.727922 161.083557 91.129311
[L_mid_tent01]
57 27.299191 22.178963 -249.918701 -20.019930 15.039870 17.560598 252.381683
58 27.299192 22.178961 -249.918701 -20.262495 14.039763 16.022503 252.381683
[R_mid_tent01]
57 23.228794 24.509907 226.238495 -166.835831 -19.771894 27.193048 228.744751
58 23.228794 24.509907 226.238495 -166.273788 -19.175554 26.136730 228.744751
[spine01]
57 -0.361383 -0.195265 0.000000 -0.000001 -0.000007 22.052340 0.410763
58 -0.361383 -0.195265 0.000000 -0.000001 -0.000007 22.052340 0.410763
[Bip01_Neck]
57 165.484543 71.581718 0.000119 176.643677 -1.657967 43.431911 180.302734
58 165.484543 71.581718 0.000119 176.643677 -1.657967 43.431911 180.302734
[L_humerus]
57 -13.983130 -135.272980 -120.471481 -3.389630 72.341705 86.788422 181.680161
58 -13.983130 -135.272980 -120.471481 -4.206325 71.297195 85.938683 181.680161
[R_humerus]
57 -13.983309 -135.273102 125.287651 29.789686 -73.611954 65.785561 184.909012
58 -13.983309 -135.273102 125.287651 29.240969 -72.461868 66.360161 184.909012
[weapon_bone]
57 235.964890 -300.705902 0.000000 0.000000 -89.951546 -128.212341 382.234833
58 235.964890 -300.705902 0.000000 0.000000 -89.951546 -128.212341 382.234833
[Bip01_Head]
57 203.286102 162.408569 31.616493 4.962490 2.797846 -43.898750 262.109497
58 203.286102 162.408569 31.616497 4.962491 2.797846 -43.898746 262.109497
[eye_left_bone]
57 -24.626970 125.451866 -64.772606 0.000000 -90.000000 -99.840431 143.318359
58 -24.626970 125.451866 -64.772606 0.000000 -90.000000 -99.840431 143.318359
[eye_right_bone]
57 -24.626970 125.451866 64.327362 0.000000 -89.965736 80.156380 143.117676
58 -24.626970 125.451866 64.327362 0.000000 -89.980217 80.156387 143.117676
[L_forearm]
57 322.776093 0.000000 -0.000119 0.000318 -0.002326 -105.549713 322.776093
58 322.776093 0.000000 -0.000119 0.000339 -0.002323 -106.622864 322.776093
[L_front_hand]
57 241.149185 -0.042021 -3.300071 0.836591 -1.835726 -27.423458 241.171753
58 241.149185 -0.042021 -3.300071 0.836591 -1.835726 -27.423458 241.171753
[L_weapon_bone]
57 156.183838 0.000000 0.000000 0.000014 0.000007 0.000001 156.183838
58 156.183838 0.000000 0.000000 0.000014 0.000007 0.000001 156.183838
[L_front_hand01_01]
57 86.095154 20.947098 -0.655860 -0.366594 -0.477154 75.385574 88.609184
58 86.095154 20.947098 -0.655860 -0.366594 -0.477154 75.385574 88.609184
[L_front_hand02_01]
57 86.935165 -11.437475 24.513514 154.399796 -59.883835 -61.369587 91.046425
58 86.935165 -11.437475 24.513514 154.399796 -59.883835 -61.369587 91.046425
[L_front_hand03_01]
57 86.637497 -14.123976 -20.424902 -153.913849 58.118122 -62.702866 90.126129
58 86.637497 -14.123976 -20.424902 -153.913849 58.118122 -62.702866 90.126129
[L_front_hand01_02]
57 71.020905 -0.000179 0.000030 0.000334 -0.002323 -106.379684 71.020905
58 71.020905 -0.000179 0.000030 0.000334 -0.002323 -106.379684 71.020905
[L_front_hand02_02]
57 71.020927 -0.000119 0.000060 0.000334 -0.002323 -106.379684 71.020927
58 71.020927 -0.000119 0.000060 0.000334 -0.002323 -106.379684 71.020927
[L_front_hand03_02]
57 71.020905 -0.000060 0.000060 0.000334 -0.002323 -106.379684 71.020905
58 71.020905 -0.000060 0.000060 0.000334 -0.002323 -106.379684 71.020905
[R_forearm]
57 322.776428 -0.000060 0.000030 0.208867 0.048689 -104.395973 322.776428
58 322.776428 -0.000060 0.000030 0.206482 0.051984 -105.381561 322.776428
[R_front_hand]
57 238.847015 -0.006795 2.210259 42.936222 -10.646152 -26.312963 238.857239
58 238.847015 -0.006795 2.210259 42.936222 -10.646152 -26.312963 238.857239
[R_weapon_bone]
57 155.664093 0.002503 -0.000030 0.003487 0.001180 -90.988930 155.664078
58 155.664093 0.002503 -0.000030 0.003487 0.001180 -90.988930 155.664078
[R_front_hand01_01]
57 87.624611 14.231146 22.918642 -154.633484 -59.950619 61.746037 91.683487
58 87.624611 14.231146 22.918642 -154.633499 -59.950619 61.746044 91.683487
[R_front_hand02_01]
57 89.356956 14.367283 -19.491137 154.602661 58.302849 63.744389 92.579636
58 89.356956 14.367283 -19.491137 154.602661 58.302849 63.744389 92.579636
[R_front_hand03_01]
57 87.286232 -22.307278 -0.143439 0.162155 -0.423168 -75.767921 90.091743
58 87.286232 -22.307278 -0.143439 0.162155 -0.423168 -75.767921 90.091743
[R_front_hand01_02]
57 71.020905 0.000060 0.000119 0.002323 -0.000334 106.381714 71.020905
58 71.020905 0.000060 0.000119 0.002323 -0.000334 106.381714 71.020905
[R_front_hand02_02]
57 71.020844 -0.000030 -0.000119 0.002323 -0.000334 106.381714 71.020836
58 71.020844 -0.000030 -0.000119 0.002323 -0.000334 106.381714 71.020836
[R_front_hand03_02]
57 71.020905 0.000000 0.000030 0.002323 -0.000334 106.381714 71.020905
58 71.020905 0.000000 0.000030 0.002323 -0.000334 106.381714 71.020905
[null_rope01_connect]
57 328.732483 0.000000 -0.000238 -146.536499 -63.754498 -126.236542 328.732483
58 328.732483 0.000000 -0.000238 -150.238144 -64.114182 -123.772507 328.732483
[Rope1_Seg01]
57 0.000004 -0.000581 0.000000 7.506046 -14.050842 -130.111389 0.000581
58 0.000003 -0.000591 0.000000 22.186806 -7.925814 -128.918777 0.000591
[Rope1_Seg02]
57 139.999863 -0.000179 0.000000 17.527082 17.200951 -4.643062 139.999863
58 139.999863 -0.000179 0.000000 8.805455 8.630155 -3.053954 139.999863
[Rope1_Seg03]
57 139.999924 0.000060 -0.000060 0.667899 21.408152 -17.920332 139.999924
58 139.999924 0.000060 -0.000060 2.096594 11.039104 -8.994049 139.999924
[Rope1_Seg04]
57 139.999924 -0.000060 -0.000119 -1.837752 16.220800 -16.583174 139.999924
58 139.999924 -0.000060 -0.000119 -1.396949 12.814507 -14.301076 139.999924
[Rope1_Seg05]
57 139.999832 0.000119 -0.000060 3.353412 5.282604 13.062010 139.999832
58 139.999832 0.000119 -0.000060 18.834900 9.053884 24.238085 139.999832
[Rope1_Seg06]
57 139.999954 0.000119 -0.000060 12.174381 5.247940 28.982538 139.999954
58 139.999954 0.000119 -0.000060 19.582115 10.906611 18.343723 139.999954
[Rope1_Seg07]
57 139.999985 0.000060 0.000000 11.718847 8.330660 14.598546 139.999985
58 139.999985 0.000060 0.000000 7.486659 7.128881 4.794844 139.999985
[Rope1_Seg09]
57 121.602913 0.000119 -0.000089 -89.793175 -1.359789 0.847147 121.602913
58 121.602913 0.000119 -0.000089 -89.793175 -1.359789 0.847147 121.602913
[L_mid_hand01]
57 103.859421 1.038730 8.195221 130.544373 -67.584534 -38.866943 104.187431
58 103.859421 1.038730 8.195221 130.544373 -67.584534 -38.866943 104.187431
[L_mid_hand02]
57 105.572853 -4.139662 -10.864139 -168.923172 43.409309 -73.498886 106.211075
58 105.572853 -4.139662 -10.864139 -168.923172 43.409309 -73.498886 106.211075
[L_mid_hand03]
57 104.641464 17.579376 -3.913581 -6.012627 17.808174 74.893669 106.179977
58 104.641464 17.579376 -3.913581 -6.012627 17.808178 74.893677 106.179977
[null_rope02_connect]
57 328.732849 0.000179 -0.000119 -132.000641 67.578339 -29.554749 328.732849
58 328.732849 0.000179 -0.000119 -135.687103 67.752861 -31.324514 328.732849
[Rope2_Seg01]
57 0.000095 0.000585 0.000000 26.834806 -6.320033 -41.972599 0.000593
58 0.000095 0.000594 0.000000 8.515342 -1.284646 -47.716919 0.000601
[Rope2_Seg02]
57 139.999741 -0.000060 -0.000119 -25.707916 19.069176 -28.224209 139.999756
58 139.999741 -0.000060 -0.000119 -15.985114 12.951420 -16.990732 139.999756
[Rope2_Seg03]
57 140.000107 0.000030 0.000000 -4.471490 26.623861 -15.118759 140.000107
58 140.000107 0.000030 0.000000 -1.831652 18.274185 -9.098872 140.000107
[Rope2_Seg04]
57 139.999802 0.000000 -0.000060 -1.317690 0.735323 -6.400681 139.999802
58 139.999802 0.000000 -0.000060 -6.301835 -3.080128 -11.194223 139.999802
[Rope2_Seg05]
57 139.999985 -0.000060 0.000119 -2.484021 -12.326692 -6.695329 139.999985
58 139.999985 -0.000060 0.000119 -6.517794 -7.328070 -10.198349 139.999985
[Rope2_Seg06]
57 139.999893 -0.000030 -0.000119 -2.977149 -6.086179 -6.487487 139.999893
58 139.999893 -0.000030 -0.000119 -3.321011 -1.632140 -5.604181 139.999893
[Rope2_Seg07]
57 139.999893 0.000060 -0.000060 -2.542965 -4.011763 -4.994463 139.999893
58 139.999893 0.000060 -0.000060 -2.132914 -0.855104 -3.752434 139.999893
[Rope2_Seg09]
57 121.338966 0.000089 -0.000060 33.793236 -1.359788 -0.847141 121.338966
58 121.338966 0.000089 -0.000060 33.793236 -1.359788 -0.847141 121.338966
[R_mid_hand01]
57 104.680779 11.144459 -10.335981 -16.212063 45.237247 70.462852 105.778534
58 104.680779 11.144459 -10.335981 -16.212063 45.237247 70.462852 105.778534
[R_mid_hand02]
57 104.070427 2.443552 8.231699 49.067368 -67.749771 39.286453 104.424065
58 104.070427 2.443552 8.231699 49.067368 -67.749771 39.286453 104.424065
[R_mid_hand03]
57 106.028137 -11.221827 -5.996406 -177.101105 15.551026 -76.585571 106.788818
58 106.028137 -11.221827 -5.996406 -177.101105 15.551026 -76.585571 106.788818
[spine02]
57 129.756927 0.001550 0.000119 0.361646 -4.044656 -12.959939 129.756927
58 129.756927 0.001550 0.000119 0.360942 -4.044719 -12.939991 129.756927
[spine03]
57 78.613899 0.081779 -4.898988 1.897498 3.830791 16.503071 78.766441
58 78.613899 0.081782 -4.898987 1.897164 3.830957 16.493067 78.766441
[pelvis]
57 169.435242 0.051022 0.000000 -0.060563 -0.180192 14.150225 169.435257
58 169.435242 0.051022 0.000000 -0.060504 -0.180212 14.112840 169.435257
[null_rope03_connect]
57 -1.257226 -2.466202 137.391083 0.000000 -89.503471 67.546219 137.418976
58 -1.257226 -2.466202 137.391083 0.000000 -89.448921 64.630577 137.418976
[null_rope04_connect]
57 -1.259640 -2.480268 -137.844437 0.000000 -89.503471 67.546219 137.872513
58 -1.259640 -2.480268 -137.844437 0.000000 -89.448921 64.630577 137.872513
[Rope3_Seg01]
57 0.000000 0.000000 0.000000 10.490440 19.083191 -98.592422 0.000000
58 0.000000 0.000000 0.000000 9.791260 24.360754 -97.840652 0.000000
[Rope3_Seg02]
57 139.999924 -0.000119 0.000060 1.231446 -3.204142 11.092595 139.999924
58 139.999924 -0.000119 0.000060 0.759790 -2.122810 7.224324 139.999924
[Rope3_Seg03]
57 139.999924 -0.000119 0.000119 -0.052883 -2.197848 13.169643 139.999924
58 139.999924 -0.000119 0.000119 0.200967 -2.137491 8.980071 139.999924
[Rope3_Seg04]
57 139.999924 0.000119 0.000000 -1.489198 -1.661176 12.518417 139.999924
58 139.999924 0.000119 0.000000 -0.926444 -1.945923 11.855733 139.999924
[Rope3_Seg05]
57 139.999924 -0.000238 0.000060 -1.845182 -8.320969 2.546253 139.999924
58 139.999924 -0.000238 0.000060 -0.287332 -3.356698 0.069427 139.999924
[Rope3_Seg06]
57 139.999893 -0.000119 -0.000060 -0.654621 -9.849977 -0.448446 139.999893
58 139.999893 -0.000119 -0.000060 0.582267 -3.323501 -5.326215 139.999893
[Rope3_Seg07]
57 139.999771 0.000060 -0.000119 0.006364 -7.169713 1.349043 139.999771
58 139.999771 0.000060 -0.000119 0.543193 -2.498207 -1.692226 139.999771
[Rope3_Seg08]
57 139.999985 -0.000060 0.000000 0.404950 -5.048042 0.958992 139.999985
58 139.999985 -0.000060 0.000000 0.588872 -1.782750 -1.179825 139.999985
[Rope3_Seg09]
57 90.185997 -0.000179 -0.000060 89.793228 -1.359877 -0.847183 90.185997
58 90.185997 -0.000179 -0.000060 89.793228 -1.359877 -0.847183 90.185997
[R_rear_hand01]
57 103.366196 -6.073594 -10.757982 -177.714203 24.565960 -73.910950 104.101845
58 103.366196 -6.073594 -10.757982 -177.714203 24.565960 -73.910950 104.101845
[R_rear_hand02]
57 100.509819 12.039542 -7.992327 -12.874829 36.868488 72.167213 101.543350
58 100.509819 12.039542 -7.992327 -12.874829 36.868488 72.167213 101.543350
[R_rear_hand03]
57 101.539970 5.215704 5.435467 71.484581 -71.816628 21.513813 101.819031
58 101.539970 5.215704 5.435467 71.484581 -71.816628 21.513813 101.819031
[Rope4_Seg01]
57 0.000010 0.000038 -0.000114 -103.357513 15.258402 -122.040756 0.000121
58 0.000010 0.000038 -0.000114 -104.408539 17.947973 -121.740730 0.000121
[Rope4_Seg02]
57 139.999985 0.000060 0.000119 0.356210 -0.395961 -0.988686 139.999985
58 139.999985 0.000060 0.000119 -0.411747 -2.480860 0.129321 139.999985
[Rope4_Seg03]
57 139.999924 0.000000 -0.000238 0.392782 -0.889108 -1.326859 139.999924
58 139.999924 0.000000 -0.000238 -0.360805 -2.738398 0.054834 139.999924
[Rope4_Seg04]
57 139.999985 0.000000 0.000119 0.885799 -5.562569 -4.731835 139.999985
58 139.999985 0.000000 0.000119 0.065736 -8.032648 -2.819238 139.999985
[Rope4_Seg05]
57 139.999802 -0.000060 -0.000119 0.032445 4.726595 2.785101 139.999802
58 139.999802 -0.000060 -0.000119 -0.225249 0.990614 2.364002 139.999802
[Rope4_Seg06]
57 139.999924 0.000000 0.000060 -0.288644 16.462662 11.633427 139.999924
58 139.999924 0.000000 0.000060 0.177429 12.756729 8.698769 139.999924
[Rope4_Seg07]
57 139.999802 0.000000 0.000000 -2.187946 10.745080 7.945860 139.999802
58 139.999802 0.000000 0.000000 -0.588433 7.390574 5.223821 139.999802
[Rope4_Seg08]
57 139.999924 0.000000 0.000119 -3.989406 5.481293 4.419330 139.999924
58 139.999924 0.000000 0.000119 -2.172207 3.526854 2.701457 139.999924
[Rope4_Seg09]
57 90.185791 0.000060 0.000060 -135.617828 2.228885 0.850567 90.185791
58 90.185791 0.000060 0.000060 -135.617828 2.228885 0.850567 90.185791
[L_rear_hand01]
57 101.696655 -8.392275 -7.654577 -12.874829 -36.868488 107.832764 102.329041
58 101.696655 -8.392275 -7.654577 -12.874829 -36.868488 107.832764 102.329041
[L_rear_hand02]
57 102.726799 -1.568258 5.773216 71.484627 71.816643 158.486160 102.900848
58 102.726799 -1.568258 5.773216 71.484581 71.816628 158.486160 102.900848
[L_rear_hand03]
57 104.552910 9.721220 -10.420293 -177.714203 -24.565960 -106.089035 105.519653
58 104.552910 9.721220 -10.420293 -177.714203 -24.565960 -106.089035 105.519653
